<svg id="b7aff572-b957-46de-b6d2-0b395e8eaa58" data-name="Camada 1" xmlns="http://www.w3.org/2000/svg" viewBox="0 0 1853.57 279.44"><defs><style>.a25c931b-a890-4745-b829-08799f48312d{fill:#fefefe;}.f1969d32-1175-4bb5-9846-31b94678241d{fill:#aeaeae;}.b1f65681-dead-4aa3-b306-e72ac72c0600{fill:#afafaf;}.e79a7c88-2233-4b86-b24f-5ef55b7ce5d5{fill:#919191;}.b0369f2c-2fbc-4adf-8f97-bf715214854f{fill:#fbfbfb;}</style></defs><path class="a25c931b-a890-4745-b829-08799f48312d" d="M472.09,679.07H384.6a.7.7,0,0,1,.12-.93c7-4.56,12.89-10.48,19.29-15.77q9.86-8.16,19.51-16.55a9.8,9.8,0,0,0,3.43-6.05q10.57-60.3,21.3-120.58c4-22.7,7.89-45.43,12.17-68.08a11.55,11.55,0,0,0-2.72-10.57c-7.62-8.94-15-18.05-22.46-27.16a8.7,8.7,0,0,0-7.31-3.36q-46.55.09-93.1,0a9.6,9.6,0,0,0-6.62,2.25c-11.77,10.07-23.68,20-35.42,30.09a10.67,10.67,0,0,0-3.65,6.63q-15.39,87.15-30.77,174.27c-1,5.42-1.84,10.86-2.93,16.26a7.2,7.2,0,0,0,1.65,6.35c8,9.82,16.17,19.54,24.19,29.36.94,1.15,2.27,1.82,3.28,2.87a.75.75,0,0,1,.06,1H197.13a1,1,0,0,1,0-1,11.63,11.63,0,0,0,2.72-6.16q15.48-87.74,31-175.47c4.63-26.18,9.2-52.37,13.94-78.53,1.3-7.21.84-7.78-6.4-7.78h-45.6c-5.78,0-6.4.53-7.4,6.08-6.65,37.1-13.12,74.23-19.78,111.34-.28,1.56-.12,4.14-1.81,4.17s-1.55-2.56-1.84-4.08C155.61,494,149.22,460.47,143,426.87c-.76-4.08-1.52-8.17-2.34-12.24-.73-3.6-1.87-4.5-5.58-4.51q-24.51-.06-49,0c-4.1,0-5.15,1-6,5.6Q75,444.55,69.94,473.4q-11.64,66-23.34,131.9-5.9,33.29-11.8,66.57c-.41,2.27-.33,4.32,1.17,6.17a1,1,0,0,1-.06,1c-2.64.56-3.2-.47-3.2-3.11q.13-136.63,0-273.28c0-2.27.41-2.9,2.83-2.9q924,.11,1847.9,0c2.46,0,2.82.67,2.82,2.92q-.1,136.79,0,273.59c0,2.37-.59,2.85-2.89,2.84q-59.52-.12-119-.06a.84.84,0,0,1,.15-1,9.63,9.63,0,0,0,3.49-5.35q6-20,12.2-39.93c2.28-7.41,1.69-8.22-6.17-8.22h-71.23c-6.19,0-6.68-.55-5.6-6.71,2.54-14.52,5.18-29,7.69-43.57.71-4.13,1.22-4.55,5.56-4.56,17.29,0,34.58,0,51.86,0,5.3,0,6.18-.71,7.09-5.77,2.39-13.18,4.65-26.39,7-39.57a20.88,20.88,0,0,0,.52-4,2.61,2.61,0,0,0-2.59-2.9c-1.15-.11-2.29-.09-3.44-.09h-48.11c-1.14,0-2.29,0-3.43,0-3.37-.18-4.08-1-3.62-4.23.6-4.32,1.47-8.6,2.25-12.89,1.89-10.53,3.66-21.08,5.56-31.61.9-4.95,1.45-5.45,6.55-5.46q32.49,0,65,0c1.14,0,2.29,0,3.43,0,3.5-.16,4.33-.84,5-4.31,1.92-10.21,3.66-20.45,5.47-30.68.73-4.19,1.57-8.37,2.19-12.58s-.34-5.31-4.6-5.36c-7-.07-13.95,0-20.93,0H1678.82c-5.27,0-6.21.77-7.09,5.78q-15.27,86.2-30.49,172.43-7.15,40.35-14.28,80.7c-.54,3-1.74,6.11.61,9a1.12,1.12,0,0,1,0,1.08h-54.37a.77.77,0,0,1,0-1,8.89,8.89,0,0,0,3.13-5.89c2.77-16.38,5.83-32.72,8.6-49.1.8-4.77.15-5.51-4.71-5.52q-36.56,0-73.1,0c-1.81,0-4.19.75-5.22-1.09s.94-3.42,2-4.86c11.64-16,23.39-31.84,35.1-47.73q35.89-48.71,71.82-97.38a17.55,17.55,0,0,0,3.26-7.66q3.59-20.88,7.38-41.73c.14-.82.28-1.64.38-2.46.38-3.24-.55-4.36-3.85-4.58-1-.07-2.08,0-3.12,0H1475.22c-.73,0-1.46,0-2.19,0-3.94.09-4.89.83-5.63,4.77-1.34,7.25-2.59,14.52-3.88,21.78-1.54,8.69-3,17.39-4.62,26.08-.13.72-.29,1.43-.37,2.15-.47,4.25.35,5.19,4.69,5.19q36.08,0,72.16,0c1.82,0,4.26-.76,5.24,1,1.06,2-1,3.61-2.15,5.13-23.65,32.28-47.11,64.71-70.7,97q-17.74,24.32-35.42,48.66a15.89,15.89,0,0,0-2.81,6.82c-2.48,14.43-5.07,28.85-7.64,43.27-.4,2.24-.48,4.34,1.29,6.09a.86.86,0,0,1,0,1h-58.74a.87.87,0,0,1,0-1c1.88-1.73,2.42-4,2.83-6.42q6.21-35.29,12.47-70.58,11.7-66,23.37-131.93c3.12-17.59,6.31-35.16,9.25-52.79.88-5.28,0-6.23-5.43-6.24q-23.6,0-47.17,0c-5.57,0-6.38.59-7.39,6.2-3.65,20.14-7.15,40.3-10.73,60.44q-11.79,66.27-23.47,132.55c-3.74,21.06-7.42,42.14-11.21,63.2a6.64,6.64,0,0,0,1.26,5.55,1,1,0,0,1-.06,1h-90.61a.77.77,0,0,1,.07-1c12.74-10.21,25-21,37.62-31.35a13.07,13.07,0,0,0,4.81-8.36c5-28.65,9.92-57.3,15.22-85.9a11.41,11.41,0,0,0-2.82-10.5c-7.33-8.5-14.66-17-21.66-25.79a9.77,9.77,0,0,0-8.53-4c-19.27.15-38.53.08-57.79.07-7.54,0-12.41-5.79-11.16-13.22,1.34-7.88,2.87-15.73,4.13-23.63a10,10,0,0,1,3.56-6.37c1.6-1.33,3.21-2.64,4.75-4a7.81,7.81,0,0,1,5.49-1.86c8.12,0,16.24-.1,24.36,0,6.59.1,12,6.78,11,13.25-.6,3.69-1.38,7.35-1.94,11-.81,5.32-.08,6.19,5.45,6.21q13.28,0,26.55,0c7,0,13.95,0,20.93,0,4,0,5-.75,5.72-4.68,2.5-13.48,4.85-27,7.2-40.49a7.17,7.17,0,0,0-1.58-6.09c-8.09-9.91-16.3-19.71-24.39-29.61a7.29,7.29,0,0,0-6-2.75q-45.3,0-90.59,0a9.64,9.64,0,0,0-6.51,2.56q-16.87,14.34-33.8,28.63a13.75,13.75,0,0,0-5.07,8.57c-4.76,27-9.42,54-14.29,81a7.21,7.21,0,0,0,1.67,6.34c8,9.58,16,19.1,24,28.75a8.7,8.7,0,0,0,7.35,3.25q29.22-.1,58.42,0a10.18,10.18,0,0,1,10.24,12.1c-1.8,10.75-3.76,21.48-5.66,32.22a9.88,9.88,0,0,1-3,5.22c-4.39,4.64-9.51,6.37-15.93,5.92-7-.49-14.15-.07-21.23-.12a10.18,10.18,0,0,1-10-11.76c1-6.36,2.23-12.69,3.33-19,.72-4.17-.18-5.32-4.47-5.33q-23.6-.06-47.17,0c-4.06,0-5.07.87-5.79,5q-4,22.71-8,45.4a9.12,9.12,0,0,0,2.12,8q11.71,14,23.24,28.13a38,38,0,0,0,3.4,3.2.78.78,0,0,1,.07,1h-90a.92.92,0,0,1,0-1c2-1.95,2.5-4.48,3-7.06,3.43-19.76,7-39.49,10.46-59.23q11-62.29,22-124.59c4.15-23.63,8.44-47.24,12.49-70.89.88-5.16,0-6.15-5.2-6.16h-48.74c-5.1,0-5.91.69-6.78,5.66q-8.38,47.73-16.88,95.44c-1,5.69-1.47,6.09-7.3,6.1q-16.71,0-33.43,0c-5.55,0-6.14-.77-5.16-6.25q8.17-45.87,16.24-91.75c.28-1.54.59-3.07.72-4.62.3-3.3-.66-4.38-3.91-4.56-.52,0-1,0-1.56,0H918.27c-5.22,0-6.18.8-7.07,5.82q-12.69,71.65-25.31,143.31-9.79,55.23-19.58,110.46c-.51,2.83-1.49,5.74.77,8.33a1,1,0,0,1-.06,1H778.91a.89.89,0,0,1,.09-1,9.59,9.59,0,0,0,3-6q9.27-52.29,18.49-104.6,8.65-48.93,17.33-97.85c1.15-6.5,1.22-6.49,7.75-6.49,11.24,0,22.48,0,33.73,0,4.47,0,5.33-.71,6.09-4.92,2.53-13.9,4.93-27.81,7.4-41.72a25.78,25.78,0,0,0,.37-2.78c.15-2-.87-3.11-2.81-3.42a22.25,22.25,0,0,0-3.74-.15H728.86c-6,0-6.71.65-7.75,6.51q-3.45,19.49-6.9,39c-.16.92-.34,1.84-.44,2.76-.42,3.78.35,4.73,4.14,4.75,11,0,22.07,0,33.11,0,7,0,7.07,0,5.83,7q-11.16,63-22.29,126.08-6.59,37.28-13.2,74.54c-.46,2.6-1,5.16,1.28,7.26a1,1,0,0,1,0,1.05H635.81a.87.87,0,0,1,0-1c2.38-2.07,2.25-4.63,1.69-7.43-5-24.84-9.71-49.74-14.81-74.56-.82-4-.51-6.71,3.37-9.09s6.76-6.11,10.15-9.18c5.7-5.16,11.23-10.51,17-15.6a11.14,11.14,0,0,0,3.69-6.66c6.15-34.66,12.18-69.34,18.47-104,.84-4.6,0-8.06-3.08-11.65C665,431.43,657.92,422.69,650.8,414a10.22,10.22,0,0,0-8.63-4q-59.5.14-119,.06c-5,0-6,.82-6.88,5.66-7.21,40.59-14.3,81.2-21.51,121.8q-11.7,65.79-23.31,131.6c-.53,3-1.81,6.12.69,8.91A1,1,0,0,1,472.09,679.07Z" transform="translate(-32.71 -399.78)"/><path class="a25c931b-a890-4745-b829-08799f48312d" d="M973.88,679.07h-50a.9.9,0,0,1,0-1c2.07-1.87,2.6-4.4,3.05-7,4.62-26.61,9.43-53.19,14.1-79.79,1-5.63,2-11.25,3-16.88.47-2.69,1.73-4,4.54-4,12.6,0,25.2-.06,37.8,0,3.46,0,4.11,1,3.47,4.55q-6.6,37.44-13.24,74.87c-1.34,7.57-2.61,15.15-4,22.7a6.13,6.13,0,0,0,1.29,5.54A.94.94,0,0,1,973.88,679.07Z" transform="translate(-32.71 -399.78)"/><path class="a25c931b-a890-4745-b829-08799f48312d" d="M142.14,679.07h-50a.89.89,0,0,1,0-1A11.52,11.52,0,0,0,95,671.63c6.31-35.88,12.74-71.75,19-107.64.38-2.13.51-4.35,1.63-6.3,1.23-.62,1.51.44,2,1.12,2.52,9.66,3.91,19.54,5.8,29.32,4.63,24,9,48,13.62,71.92.8,4.18,1.53,8.38,2.35,12.56a9.74,9.74,0,0,0,2.7,5.47A.84.84,0,0,1,142.14,679.07Z" transform="translate(-32.71 -399.78)"/><path class="a25c931b-a890-4745-b829-08799f48312d" d="M576.44,679.07H529a.89.89,0,0,1,0-1c2.19-1.94,2.66-4.6,3.13-7.28,4-23.13,8.19-46.23,12.21-69.36.28-1.64.71-3.26.92-4.9.36-2.83,2-3.89,4.69-3.75,2,.1,4,0,5.94,0,3.81.06,4.4.55,5.09,4.4,2,10.83,3.75,21.69,5.66,32.54,2.52,14.32,5,28.64,7.47,43a12.34,12.34,0,0,0,2.4,5.32A1,1,0,0,1,576.44,679.07Z" transform="translate(-32.71 -399.78)"/><path class="f1969d32-1175-4bb5-9846-31b94678241d" d="M1573.2,678.57a1.2,1.2,0,0,1,0,.5h-150a1.11,1.11,0,0,0,0-.54c1.65-1.57,3.72-1.08,5.64-1.08q58.34,0,116.66,0c7.7,0,15.39,0,23.08,0C1570.14,677.46,1571.9,677.13,1573.2,678.57Z" transform="translate(-32.71 -399.78)"/><path class="f1969d32-1175-4bb5-9846-31b94678241d" d="M1764.42,678.58a.91.91,0,0,1-.05.49H1627.52a.83.83,0,0,0,0-.56c1.13-1.21,2.66-1.06,4.09-1.06q64.39,0,128.79,0C1761.8,677.45,1763.33,677.28,1764.42,678.58Z" transform="translate(-32.71 -399.78)"/><path class="f1969d32-1175-4bb5-9846-31b94678241d" d="M284.62,679.07a1.4,1.4,0,0,1-.05-.5c1.1-1.28,2.63-1.12,4.05-1.12q46,0,92,0c1.42,0,3-.16,4,1.12a1.06,1.06,0,0,1,0,.5Z" transform="translate(-32.71 -399.78)"/><path class="f1969d32-1175-4bb5-9846-31b94678241d" d="M1217.62,678.52a.87.87,0,0,0,0,.55h-96.86a4.55,4.55,0,0,0,0-.52c1.11-1.26,2.63-1.1,4.06-1.1q44.4,0,88.79,0C1215,677.45,1216.49,677.3,1217.62,678.52Z" transform="translate(-32.71 -399.78)"/><path class="f1969d32-1175-4bb5-9846-31b94678241d" d="M576.44,679.07a1,1,0,0,0,0-.55c1.12-1.22,2.64-1.06,4.07-1.07q25.66,0,51.33,0c1.42,0,3-.16,4.05,1.12a1.67,1.67,0,0,1-.05.5Z" transform="translate(-32.71 -399.78)"/><path class="b1f65681-dead-4aa3-b306-e72ac72c0600" d="M529,678.54a1.9,1.9,0,0,0,0,.53H472.09a.9.9,0,0,0,0-.56c1.13-1.21,2.65-1,4.07-1.06q24.4,0,48.8,0C526.36,677.46,527.88,677.3,529,678.54Z" transform="translate(-32.71 -399.78)"/><path class="b1f65681-dead-4aa3-b306-e72ac72c0600" d="M923.92,678.54a1.58,1.58,0,0,0,0,.53H867a.78.78,0,0,0,0-.56c1.13-1.21,2.65-1,4.07-1.06q24.41,0,48.81,0C921.29,677.46,922.81,677.3,923.92,678.54Z" transform="translate(-32.71 -399.78)"/><path class="b1f65681-dead-4aa3-b306-e72ac72c0600" d="M973.88,679.07a1.11,1.11,0,0,0,0-.54c1.13-1.23,2.64-1.07,4.07-1.08q24.4,0,48.8,0c1.43,0,3-.15,4.07,1.08a1.11,1.11,0,0,0,0,.54Z" transform="translate(-32.71 -399.78)"/><path class="b1f65681-dead-4aa3-b306-e72ac72c0600" d="M92.18,678.52a1,1,0,0,0,0,.55H35.91a.78.78,0,0,0,0-.56c1.13-1.21,2.65-1,4.07-1.06q24.09,0,48.17,0C89.54,677.46,91.06,677.3,92.18,678.52Z" transform="translate(-32.71 -399.78)"/><path class="f1969d32-1175-4bb5-9846-31b94678241d" d="M779,678.57a1.67,1.67,0,0,1-.05.5H722.67a1.4,1.4,0,0,1,0-.5c1.1-1.28,2.62-1.11,4-1.12q24.12,0,48.24,0C776.33,677.46,777.86,677.29,779,678.57Z" transform="translate(-32.71 -399.78)"/><path class="b1f65681-dead-4aa3-b306-e72ac72c0600" d="M1308.2,679.07a.73.73,0,0,0,0-.56c1.14-1.21,2.65-1,4.07-1.06q24.09,0,48.17,0c1.42,0,2.94-.15,4.06,1.08a1.1,1.1,0,0,0,0,.54Z" transform="translate(-32.71 -399.78)"/><path class="b1f65681-dead-4aa3-b306-e72ac72c0600" d="M142.14,679.07a.82.82,0,0,1,0-.49c1.09-1.29,2.62-1.12,4-1.12q23.48-.06,47,0c1.43,0,2.95-.15,4.08,1.06a.68.68,0,0,0,0,.56Z" transform="translate(-32.71 -399.78)"/><path d="M197.16,678.51l-55.07.07c-2.12-.55-2.83-2.09-3.21-4.09q-6.45-34.34-13-68.66-4.44-23.49-8.84-47c-.45-.31.21-1.56-1-1.19q-5.85,33.17-11.7,66.34c-3,16.81-6,33.62-8.94,50.44-.35,2-1.14,3.51-3.21,4.1H35.88c-2.36-.81-2.73-2.62-2.35-4.76q6.6-37.38,13.23-74.75,8-45,16-90.06,8.45-47.62,16.83-95.27c.54-3.12,2.16-4.48,5.27-4.47q25.77,0,51.55,0c3.1,0,4.55,1.47,5.08,4.31q10.66,57.18,21.37,114.36c.22,1.21.51,2.42,1,4.5,1.63-9.15,3.12-17.47,4.59-25.8q8.19-46.41,16.37-92.83c.61-3.45,1.92-4.5,5.58-4.5q25.62,0,51.24,0c4.22,0,5.34,1.47,4.61,5.61q-9.88,55.91-19.74,111.82-10.17,57.44-20.38,114.87-2.91,16.38-5.76,32.78C200,676.3,199.21,677.85,197.16,678.51Z" transform="translate(-32.71 -399.78)"/><path d="M529,678.54l-56.93,0c-2.36-.81-2.73-2.62-2.36-4.76q6.66-37.53,13.31-75,8-45,15.94-90.07,8.4-47.47,16.78-95c.55-3.12,2.17-4.46,5.28-4.46q61.86,0,123.73,0a6.47,6.47,0,0,1,5.38,2.56q12.58,15.3,25.23,30.53a6.9,6.9,0,0,1,1.5,6.07q-9.61,53.91-19.12,107.83a10.37,10.37,0,0,1-3.37,6.11c-9.13,8.36-18.2,16.78-27.3,25.18-.45.42-.86,1.08-1.39,1.22-3.63.9-2.81,3.35-2.3,5.9q7.74,38.73,15.36,77.49c.55,2.78.76,5.5-2.87,6.48l-59.45-.05c-2.23-.77-2.69-2.68-3-4.67q-6.66-38.45-13.27-76.9c-.41-2.4-1.1-3.83-3.85-3.24a10.56,10.56,0,0,1-2.18,0c-7.54,0-7.52,0-8.8,7.32q-6.33,36.13-12.69,72.26C532.19,675.57,531.82,677.91,529,678.54Z" transform="translate(-32.71 -399.78)"/><path d="M384.65,678.57c-4.88,0-9.76-.11-14.64-.11H288c-1.14,0-2.28.07-3.42.11A6.05,6.05,0,0,1,280.8,676q-12.3-14.92-24.63-29.8a7.13,7.13,0,0,1-1.65-6.31q6.54-36.58,12.94-73.2,7.95-45,15.91-90,2.56-14.55,5.1-29.1a8.5,8.5,0,0,1,3-5.28q18.23-15.41,36.39-30.87a9.15,9.15,0,0,1,6.28-2.24q47.47.06,94.95,0a7.32,7.32,0,0,1,6.19,2.88q12.35,15.07,24.8,30.05a7.14,7.14,0,0,1,1.59,6.32Q448.75,520.84,436,593.29q-4.15,23.58-8.26,47.17a9.24,9.24,0,0,1-3.3,5.77q-17.78,15-35.46,30A8.17,8.17,0,0,1,384.65,678.57Z" transform="translate(-32.71 -399.78)"/><path d="M1030.78,678.53H973.84c-2.82-.88-2.73-3.07-2.33-5.32,1.92-10.92,3.9-21.83,5.84-32.75q6-33.69,12-67.36c.32-1.8-.26-2.07-1.86-2.07-13.22.05-26.44.07-39.66,0-1.92,0-2.4.72-2.7,2.45q-8.73,49.93-17.58,99.84c-.4,2.26-.77,4.6-3.6,5.23l-56.93,0c-2.36-.81-2.73-2.62-2.35-4.76q6.65-37.51,13.3-75,8-45,15.94-90.06,8.39-47.32,16.78-94.64c.7-4,1.74-4.79,5.88-4.79q25.94,0,51.86,0c4.42,0,5.55,1.32,4.78,5.78-1.92,11-3.92,22.05-5.87,33.08-3.84,21.64-7.64,43.3-11.56,64.93-.47,2.6.1,3.25,2.81,3.21,12.6-.15,25.2-.13,37.8,0,2.34,0,3.13-.66,3.53-3,4.17-24.11,8.46-48.21,12.72-72.3,1.61-9.09,3.21-18.18,4.88-27.26.66-3.61,1.76-4.48,5.5-4.48q26.25,0,52.49,0c4,0,5.23,1.49,4.52,5.47q-8.19,46.41-16.43,92.81-8,45-15.94,90-6.68,37.85-13.34,75.67C1033.89,675.47,1033.59,677.85,1030.78,678.53Z" transform="translate(-32.71 -399.78)"/><path d="M1217.62,678.52l-96.93,0a6,6,0,0,1-3.53-2.4c-8.26-10-16.5-20.06-24.84-30a7.27,7.27,0,0,1-1.53-6.39q4.26-23.88,8.54-47.76c.7-3.9,1.63-4.59,5.68-4.59q24.36,0,48.73,0c4.31,0,5.35,1.27,4.62,5.5-1.14,6.64-2.14,13.31-3.51,19.91a7.38,7.38,0,0,0,1.52,6.48c2.49,3.49,5.33,4.73,9.63,4.53,8.31-.37,16.66-.16,25-.07a8.64,8.64,0,0,0,5-1.8c5.64-3.57,7.86-8.62,8.63-15.12,1-8.84,3-17.57,4.58-26.35.88-4.78-3.86-10.54-8.76-10.54-20,0-40,0-60,0a8.18,8.18,0,0,1-7-3.23q-12-14.55-24.21-28.93a7.85,7.85,0,0,1-1.89-7.11q7.46-41.49,14.65-83a8.88,8.88,0,0,1,3.17-5.52q18.12-15.29,36.16-30.67a9.12,9.12,0,0,1,6.26-2.3q45.6.06,91.22,0a7.36,7.36,0,0,1,6.2,2.85q12.23,15,24.6,29.83a7.64,7.64,0,0,1,1.76,6.86c-2.48,13.57-4.78,27.17-7.19,40.75-.75,4.18-1.84,5-6,5h-50c-4.39,0-5.51-1.45-4.69-5.82.93-5,1.79-10,2.72-15a4,4,0,0,0-1.07-3.59c-3.81-4.71-8.35-6.7-14.59-6.12-6.4.6-12.9.21-19.35.09a9,9,0,0,0-5.34,1.9c-5.63,3.6-8,8.63-8.56,15.16s-2.18,12.88-3.41,19.29a7.35,7.35,0,0,0,1.31,5.7c2.61,4.2,5.94,5.31,10.82,5.23,19-.31,38.11-.07,57.17-.18a8.69,8.69,0,0,1,7.47,3.48c7.83,9.58,15.81,19,23.82,28.45a8.16,8.16,0,0,1,2,7.4q-8.07,45-15.89,90.06a9.23,9.23,0,0,1-3.38,5.74q-18,15-35.86,30.06A9.22,9.22,0,0,1,1217.62,678.52Z" transform="translate(-32.71 -399.78)"/><path d="M1764.42,678.58c-.83,0-1.66-.12-2.48-.12l-133.52,0c-.31,0-.62,0-.93.07-2.36-.81-2.73-2.62-2.35-4.76q6.6-37.37,13.22-74.74,8-45,16-90,8.43-47.62,16.86-95.25c.63-3.55,1.79-4.49,5.5-4.5q17.19,0,34.36,0h95.59c5.71,0,6.48,1.05,5.46,6.74-2.61,14.5-5.14,29-7.71,43.5-.67,3.8-1.68,4.66-5.63,4.66-23.43,0-46.85,0-70.28-.05-2.43,0-3.28.56-3.71,3.09-2.62,15.64-5.43,31.25-8.33,46.85-.46,2.53.9,2.16,2.37,2.16h53.42c5.72,0,6.41.86,5.43,6.4q-3.84,21.59-7.63,43.19c-.7,4-1.72,4.87-5.79,4.87q-27.33,0-54.67,0c-2.08,0-3.17.16-3.6,2.77-2.63,15.85-5.52,31.66-8.42,47.47-.42,2.29,0,2.95,2.5,2.94,25.71-.11,51.43-.07,77.15-.06,5.26,0,6.28,1.37,4.73,6.46q-6.69,22-13.39,44C1767.9,676.32,1767.09,678.3,1764.42,678.58Z" transform="translate(-32.71 -399.78)"/><path d="M1573.2,678.57c-.72,0-1.45-.11-2.17-.11H1424.38c-.41,0-.82,0-1.24.08-2.86-.85-2.74-3.07-2.35-5.3,1.89-10.83,3.83-21.64,5.75-32.46.38-2.15.92-4.28,1.09-6.44.56-7,3.67-12.63,7.77-18.23q51.91-70.85,103.48-142c.65-.89,1.24-1.82,2.18-3.21h-78.43c-4.8,0-5.85-1.1-5-5.75q4.47-25.57,9.08-51.13c.73-4.06,1.76-4.84,5.85-4.84q72.62,0,145.24,0c4.62,0,5.65,1.23,4.83,5.89-2.67,15.22-5.43,30.41-8,45.64-.45,2.62-1.85,4.57-3.32,6.57L1503.52,613.5c-.6.81-1.16,1.66-1.76,2.53,1.16.93,2.34.5,3.41.5q37.49.06,75,0c6.12,0,6.71.74,5.65,6.74q-4.45,25.28-8.87,50.54C1576.52,676.14,1575.85,678.09,1573.2,678.57Z" transform="translate(-32.71 -399.78)"/><path d="M779,678.57H722.62c-2.56-.63-3.14-2.34-2.72-4.73q7.83-44.1,15.6-88.21,7.95-45,15.91-90c1.84-10.41,3.68-20.81,5.56-31.48H717.79c-4.75,0-5.83-1.19-5-5.77,1.93-11,3.92-22,5.89-33.07.67-3.77,1.33-7.55,2-11.32s1.76-4.73,5.62-4.73q22.65,0,45.29,0h96.83c5.39,0,6.35,1,5.45,6.2q-3.78,21.91-7.7,43.81c-.75,4.18-1.72,4.89-6.11,4.89-12.39,0-24.78.08-37.17-.06-2.43,0-3.37.54-3.79,3-4,22.88-8,45.75-12.07,68.62q-8.31,47-16.64,94-3.9,22-7.75,44.12C782.25,676.08,781.6,678.07,779,678.57Z" transform="translate(-32.71 -399.78)"/><path d="M1364.47,678.53l-56.3,0c-2.31-.87-2.69-2.63-2.3-4.8q9.48-53.43,19-106.86,8.6-48.54,17.13-97.08,5-28.18,10-56.35c.49-2.79,2-4.21,4.87-4.21,17.6,0,35.19,0,52.78,0,3.65,0,4.81,1.61,4.12,5.54-1.91,10.93-3.89,21.84-5.82,32.76l-15.93,90q-8.28,46.86-16.55,93.71c-2.42,13.68-4.81,27.37-7.26,41C1367.69,674.79,1367.76,677.67,1364.47,678.53Z" transform="translate(-32.71 -399.78)"/><path d="M1851.82,467.78a33.66,33.66,0,1,1,33.74-33.62A33.68,33.68,0,0,1,1851.82,467.78Z" transform="translate(-32.71 -399.78)"/><path class="e79a7c88-2233-4b86-b24f-5ef55b7ce5d5" d="M116,557.64c-.13-.4,0-1.09.19-1,1,.4,1,1.29.84,2.2Z" transform="translate(-32.71 -399.78)"/><path class="a25c931b-a890-4745-b829-08799f48312d" d="M586.86,464.11c4.89,0,9.78.06,14.67,0a5.3,5.3,0,0,1,4,1.76c3.86,3.51,4.42,7.4,3.43,12.45-3.23,16.36-5.94,32.83-8.82,49.26a6.76,6.76,0,0,1-1.92,3.39c-4.68,5.24-10.27,7.22-17.38,6.6s-14.14-.27-21.21-.07c-2.71.08-3-.8-2.56-3.14,3.5-19.37,6.91-38.76,10.35-58.14.59-3.37,1.19-6.74,1.73-10.11.23-1.44.79-2.05,2.41-2C576.66,464.19,581.76,464.11,586.86,464.11Z" transform="translate(-32.71 -399.78)"/><path class="a25c931b-a890-4745-b829-08799f48312d" d="M343.75,623.7c-4.27,0-8.54-.1-12.81,0-2.06.07-3.28-.73-4.73-2.16-3.36-3.29-3.92-6.65-3.06-11.34,7.9-43.34,15.72-86.71,22.91-130.18,1.2-7.24,5-11.34,10-15.33a4.25,4.25,0,0,1,2.95-.62c9,0,17.91,0,26.86-.05a4.82,4.82,0,0,1,3.68,1.73c3.72,3.51,4.37,7.25,3.43,12.42-8.24,45.18-16.11,90.43-24,135.67a6.64,6.64,0,0,1-1.9,3.41c-4.6,5.14-10.08,7.59-17.08,6.46A39.34,39.34,0,0,0,343.75,623.7Z" transform="translate(-32.71 -399.78)"/><path class="a25c931b-a890-4745-b829-08799f48312d" d="M1851.58,461.09a27,27,0,1,1,27.19-27A27.05,27.05,0,0,1,1851.58,461.09Z" transform="translate(-32.71 -399.78)"/><path d="M1866.84,450.73a6.08,6.08,0,0,1-.78.26c-5,.93-8.71-.61-10.94-5.5-1.06-2.33-2.82-4.34-4.26-6.49a2.69,2.69,0,0,0-2.1-1.58c-3.52-.37-3.82-.17-3.82,3.49,0,2.59-.15,5.2,0,7.78.16,2.05-.64,2.38-2.46,2.35-4.37-.06-4.38,0-4.38-4.45,0-8.93.07-17.86,0-26.79,0-2,.43-2.67,2.53-2.6,4.68.16,9.37,0,14.06.06,5.07.05,9.1,3.06,10.23,7.53a9.77,9.77,0,0,1-5.3,11.47c-2,1-1.39,1.66-.55,2.88C1861.68,443,1864.23,446.82,1866.84,450.73Z" transform="translate(-32.71 -399.78)"/><path class="b0369f2c-2fbc-4adf-8f97-bf715214854f" d="M1850.79,424.05c1.44,0,2.89,0,4.34,0a3.16,3.16,0,0,1,3.32,3,3,3,0,0,1-2.75,3.52c-3.19.25-6.4.14-9.61.18-1,0-1.17-.59-1.16-1.41a14.55,14.55,0,0,0,0-2.47c-.33-2.2.31-3.31,2.77-2.89a18.83,18.83,0,0,0,3.1,0Z" transform="translate(-32.71 -399.78)"/></svg>